<svg width="404" height="75.201" viewBox="0 0 404 75.201" xmlns="http://www.w3.org/2000/svg"><g id="svgGroup" stroke-linecap="round" fill-rule="evenodd" font-size="9pt" stroke="#ffffff" stroke-width="0.25mm" fill="none" style="stroke:#ffffff;stroke-width:0.25mm;fill:none"><path d="M 361.9 74 L 361.9 0 L 370.9 0 L 370.9 42.3 L 394.4 21 L 399.6 26.7 L 379.5 44.5 L 404 69 L 397.8 75 L 370.9 47.3 L 370.9 74 L 361.9 74 Z M 35.2 22 L 35.2 30.7 Q 38 26.5 42.35 23.65 A 17.316 17.316 0 0 1 49.456 21.025 A 22.629 22.629 0 0 1 52.7 20.8 A 23.225 23.225 0 0 1 57.765 21.318 Q 62.859 22.456 65.85 26.1 Q 69.975 31.126 70.188 39.209 A 33.764 33.764 0 0 1 70.2 40.1 L 70.2 74 L 61.2 74 L 61.2 41.1 Q 61.2 36.744 59.682 33.761 A 10.688 10.688 0 0 0 58.6 32.05 A 8.461 8.461 0 0 0 52.655 28.783 A 12.388 12.388 0 0 0 51.2 28.7 Q 48.9 28.7 46.7 29.55 A 18.175 18.175 0 0 0 42.997 31.513 A 20.625 20.625 0 0 0 42.45 31.9 Q 40.4 33.4 38.65 35.4 Q 36.9 37.4 35.5 39.6 L 35.5 74 L 26.5 74 L 26.5 22 L 35.2 22 Z M 94.4 22 L 94.4 30.7 Q 97.2 26.5 101.55 23.65 A 17.316 17.316 0 0 1 108.656 21.025 A 22.629 22.629 0 0 1 111.9 20.8 A 23.225 23.225 0 0 1 116.965 21.318 Q 122.059 22.456 125.05 26.1 Q 129.175 31.126 129.388 39.209 A 33.764 33.764 0 0 1 129.4 40.1 L 129.4 74 L 120.4 74 L 120.4 41.1 Q 120.4 36.744 118.882 33.761 A 10.688 10.688 0 0 0 117.8 32.05 A 8.461 8.461 0 0 0 111.855 28.783 A 12.388 12.388 0 0 0 110.4 28.7 Q 108.1 28.7 105.9 29.55 A 18.175 18.175 0 0 0 102.197 31.513 A 20.625 20.625 0 0 0 101.65 31.9 Q 99.6 33.4 97.85 35.4 Q 96.1 37.4 94.7 39.6 L 94.7 74 L 85.7 74 L 85.7 22 L 94.4 22 Z M 216.6 74 L 195.7 24.4 L 203.9 21 L 221.6 63.8 L 239.3 21 L 247 24.4 L 226 74 L 216.6 74 Z M 350.6 23.9 L 347.9 31.5 A 35.532 35.532 0 0 0 345.269 30.352 Q 343.918 29.83 342.666 29.494 A 21.586 21.586 0 0 0 342.5 29.45 Q 340 28.8 336.9 28.8 Q 333.4 28.8 330.35 30.1 Q 327.3 31.4 325.1 33.85 A 16.788 16.788 0 0 0 322.428 37.914 A 20.581 20.581 0 0 0 321.65 39.8 A 20.918 20.918 0 0 0 320.639 44.054 A 28.088 28.088 0 0 0 320.4 47.8 A 25.667 25.667 0 0 0 320.884 52.865 A 21.996 21.996 0 0 0 321.55 55.4 A 20.488 20.488 0 0 0 323.637 59.902 A 18.248 18.248 0 0 0 324.8 61.55 Q 326.9 64.2 329.8 65.7 Q 332.7 67.2 336.3 67.2 Q 340.1 67.2 342.8 66.4 A 25.095 25.095 0 0 0 345.577 65.385 Q 346.947 64.796 348.405 64.006 A 41.473 41.473 0 0 0 348.6 63.9 L 351.4 71.5 Q 348.2 73.2 344.4 74.2 Q 340.719 75.169 336.005 75.199 A 47.525 47.525 0 0 1 335.7 75.2 A 26.988 26.988 0 0 1 329.787 74.576 A 22.271 22.271 0 0 1 325.6 73.2 Q 321.1 71.2 317.9 67.6 A 24.641 24.641 0 0 1 313.721 60.973 A 29.254 29.254 0 0 1 312.95 59 A 31.204 31.204 0 0 1 311.371 51.652 A 38.153 38.153 0 0 1 311.2 48 A 31.882 31.882 0 0 1 312.44 39.032 A 29.616 29.616 0 0 1 312.95 37.45 A 25.969 25.969 0 0 1 317.199 29.745 A 24.654 24.654 0 0 1 318 28.8 Q 321.3 25.1 325.95 22.95 A 23.318 23.318 0 0 1 333.228 20.97 A 28.889 28.889 0 0 1 336.4 20.8 A 42.637 42.637 0 0 1 339.983 20.942 Q 342.292 21.137 344.2 21.6 Q 347.5 22.4 350.6 23.9 Z M 289.6 26.2 L 289.6 22 L 297.8 22 L 297.8 61.4 A 12.15 12.15 0 0 0 297.902 63.036 Q 298.234 65.47 299.65 66.35 Q 301.5 67.5 303.7 67.5 L 301.8 74.5 A 17.722 17.722 0 0 1 297.535 74.028 Q 291.898 72.628 290.303 67.08 A 13.59 13.59 0 0 1 290.2 66.7 Q 289 68.3 287.45 69.85 A 18.204 18.204 0 0 1 284.156 72.444 A 20.291 20.291 0 0 1 283.9 72.6 A 17.462 17.462 0 0 1 280.767 74.067 A 20.704 20.704 0 0 1 279.4 74.5 A 18.765 18.765 0 0 1 276.08 75.102 A 23.457 23.457 0 0 1 273.9 75.2 Q 269 75.2 264.75 73.3 Q 260.5 71.4 257.35 67.9 A 24.891 24.891 0 0 1 253.493 62.12 A 30.206 30.206 0 0 1 252.35 59.45 Q 250.5 54.5 250.5 48.3 Q 250.5 42.5 252.3 37.45 A 27.784 27.784 0 0 1 255.46 31.144 A 24.797 24.797 0 0 1 257.35 28.7 Q 260.6 25 265.15 22.9 A 23.124 23.124 0 0 1 273.929 20.825 A 27.082 27.082 0 0 1 275.1 20.8 A 22.584 22.584 0 0 1 279.894 21.29 A 18.703 18.703 0 0 1 283.25 22.35 A 26.002 26.002 0 0 1 287.537 24.644 A 22.103 22.103 0 0 1 289.6 26.2 Z M 141.464 41.659 A 34.196 34.196 0 0 0 140.9 48 A 34.702 34.702 0 0 0 141.03 51.027 A 28.722 28.722 0 0 0 142.85 59 A 29.451 29.451 0 0 0 143.361 60.228 A 25.437 25.437 0 0 0 148.25 67.6 Q 151.7 71.2 156.45 73.2 A 24.648 24.648 0 0 0 159.502 74.255 A 27.492 27.492 0 0 0 166.8 75.2 A 30.449 30.449 0 0 0 167.825 75.183 A 26.432 26.432 0 0 0 177.05 73.25 Q 181.8 71.3 185.3 67.7 A 23.825 23.825 0 0 0 187.146 65.56 A 26.161 26.161 0 0 0 190.75 59.05 A 27.814 27.814 0 0 0 192.083 54.411 A 34.074 34.074 0 0 0 192.7 47.8 A 34.924 34.924 0 0 0 192.464 43.679 A 27.811 27.811 0 0 0 190.7 36.6 A 28.718 28.718 0 0 0 190.038 35.074 A 24.42 24.42 0 0 0 185.2 28.1 Q 181.7 24.6 176.95 22.7 A 26.059 26.059 0 0 0 176.354 22.47 A 27.19 27.19 0 0 0 166.8 20.8 A 31.154 31.154 0 0 0 165.606 20.823 A 26.981 26.981 0 0 0 156.55 22.7 Q 151.8 24.6 148.35 28.1 Q 144.9 31.6 142.9 36.65 A 27.311 27.311 0 0 0 141.464 41.659 Z M 9.5 74 L 0 74 L 0 4 L 9.5 4 L 9.5 74 Z M 183.5 48 Q 183.5 44.1 182.25 40.6 A 19.563 19.563 0 0 0 179.875 35.945 A 17.715 17.715 0 0 0 178.75 34.5 Q 176.5 31.9 173.45 30.35 Q 170.4 28.8 166.8 28.8 A 19.249 19.249 0 0 0 161.574 29.472 A 14.037 14.037 0 0 0 154.5 34 A 17.878 17.878 0 0 0 150.826 41.374 Q 150.1 44.306 150.1 47.8 Q 150.1 51.7 151.35 55.25 A 20.131 20.131 0 0 0 153.663 59.888 A 18.151 18.151 0 0 0 154.85 61.45 Q 157.1 64.1 160.15 65.65 Q 163.2 67.2 166.8 67.2 A 18.689 18.689 0 0 0 170.718 66.805 A 15.186 15.186 0 0 0 173.8 65.8 Q 176.9 64.4 179.05 61.85 A 17.366 17.366 0 0 0 181.799 57.286 A 20.701 20.701 0 0 0 182.35 55.8 A 22.798 22.798 0 0 0 183.335 51.144 A 29.007 29.007 0 0 0 183.5 48 Z M 288.8 60.7 L 288.8 32.8 Q 286.1 30.9 282.85 29.75 Q 279.6 28.6 276 28.6 A 16.142 16.142 0 0 0 271.533 29.203 A 14.448 14.448 0 0 0 269.4 30 Q 266.4 31.4 264.25 33.95 A 17.393 17.393 0 0 0 261.743 37.953 A 21.502 21.502 0 0 0 260.9 40.1 A 23.426 23.426 0 0 0 259.817 45.381 A 28.621 28.621 0 0 0 259.7 48 A 25.723 25.723 0 0 0 260.169 52.996 A 21.781 21.781 0 0 0 260.9 55.75 A 19.283 19.283 0 0 0 262.776 59.774 A 16.545 16.545 0 0 0 264.3 61.85 Q 266.5 64.4 269.45 65.8 A 14.679 14.679 0 0 0 275.249 67.188 A 17.126 17.126 0 0 0 275.9 67.2 Q 279.7 67.2 283.1 65.4 Q 286.5 63.6 288.8 60.7 Z" vector-effect="non-scaling-stroke"/></g></svg>